<svg width="21" height="21" viewBox="0 0 21 21" fill="none" xmlns="http://www.w3.org/2000/svg">
<path d="M3.5 9.1V8.4H2.8V9.1H3.5ZM9.1 9.1V8.4H8.4V9.1H9.1ZM9.1 14.7H8.4V15.4H9.1V14.7ZM18.9 4.9H19.6V4.6102L19.3956 4.4044L18.9 4.9ZM14.7 0.7L15.1956 0.2044L14.9898 0H14.7V0.7ZM3.5 9.8H4.9V8.4H3.5V9.8ZM4.2 15.4V11.9H2.8V15.4H4.2ZM4.2 11.9V9.1H2.8V11.9H4.2ZM4.9 11.2H3.5V12.6H4.9V11.2ZM5.6 10.5C5.6 10.6857 5.52625 10.8637 5.39498 10.995C5.2637 11.1263 5.08565 11.2 4.9 11.2V12.6C5.45696 12.6 5.9911 12.3788 6.38493 11.9849C6.77875 11.5911 7 11.057 7 10.5H5.6ZM4.9 9.8C5.08565 9.8 5.2637 9.87375 5.39498 10.005C5.52625 10.1363 5.6 10.3143 5.6 10.5H7C7 9.94305 6.77875 9.4089 6.38493 9.01508C5.9911 8.62125 5.45696 8.4 4.9 8.4V9.8ZM8.4 9.1V14.7H9.8V9.1H8.4ZM9.1 15.4H10.5V14H9.1V15.4ZM12.6 13.3V10.5H11.2V13.3H12.6ZM10.5 8.4H9.1V9.8H10.5V8.4ZM12.6 10.5C12.6 9.94305 12.3788 9.4089 11.9849 9.01508C11.5911 8.62125 11.057 8.4 10.5 8.4V9.8C10.6857 9.8 10.8637 9.87375 10.995 10.005C11.1263 10.1363 11.2 10.3143 11.2 10.5H12.6ZM10.5 15.4C11.057 15.4 11.5911 15.1788 11.9849 14.7849C12.3788 14.3911 12.6 13.857 12.6 13.3H11.2C11.2 13.4857 11.1263 13.6637 10.995 13.795C10.8637 13.9263 10.6857 14 10.5 14V15.4ZM14 8.4V15.4H15.4V8.4H14ZM14.7 9.8H18.2V8.4H14.7V9.8ZM14.7 12.6H16.8V11.2H14.7V12.6ZM2.8 7V2.1H1.4V7H2.8ZM18.2 4.9V7H19.6V4.9H18.2ZM3.5 1.4H14.7V0H3.5V1.4ZM14.2044 1.1956L18.4044 5.3956L19.3956 4.4044L15.1956 0.2044L14.2044 1.1956ZM2.8 2.1C2.8 1.91435 2.87375 1.7363 3.00503 1.60503C3.1363 1.47375 3.31435 1.4 3.5 1.4V0C2.94305 0 2.4089 0.221249 2.01508 0.615076C1.62125 1.0089 1.4 1.54305 1.4 2.1H2.8ZM1.4 16.8V18.9H2.8V16.8H1.4ZM3.5 21H17.5V19.6H3.5V21ZM19.6 18.9V16.8H18.2V18.9H19.6ZM17.5 21C18.057 21 18.5911 20.7788 18.9849 20.3849C19.3788 19.9911 19.6 19.457 19.6 18.9H18.2C18.2 19.0857 18.1263 19.2637 17.995 19.395C17.8637 19.5263 17.6857 19.6 17.5 19.6V21ZM1.4 18.9C1.4 19.457 1.62125 19.9911 2.01508 20.3849C2.4089 20.7788 2.94305 21 3.5 21V19.6C3.31435 19.6 3.1363 19.5263 3.00503 19.395C2.87375 19.2637 2.8 19.0857 2.8 18.9H1.4Z" fill="white"/>
</svg>
