<svg width="18" height="23" viewBox="0 0 18 23" fill="none" xmlns="http://www.w3.org/2000/svg">
<path d="M11.2857 1V5.66667C11.2857 5.97609 11.4061 6.27283 11.6205 6.49162C11.8348 6.71042 12.1255 6.83333 12.4286 6.83333H17" stroke="#003A78" stroke-width="2" stroke-linecap="round" stroke-linejoin="round"/>
<path d="M6.71429 11.5L11.2857 17.3333M6.71429 17.3333L11.2857 11.5M14.7143 22H3.28571C2.67951 22 2.09812 21.7542 1.66947 21.3166C1.24082 20.879 1 20.2855 1 19.6667V3.33333C1 2.71449 1.24082 2.121 1.66947 1.68342C2.09812 1.24583 2.67951 1 3.28571 1H11.2857L17 6.83333V19.6667C17 20.2855 16.7592 20.879 16.3305 21.3166C15.9019 21.7542 15.3205 22 14.7143 22Z" stroke="#003A78" stroke-width="2" stroke-linecap="round" stroke-linejoin="round"/>
</svg>
