<svg width="21" height="22" viewBox="0 0 21 22" fill="none" xmlns="http://www.w3.org/2000/svg">
<path d="M19.75 14.75C19.75 17.578 19.75 18.993 18.871 19.871C17.993 20.75 16.578 20.75 13.75 20.75H7.75C4.922 20.75 3.507 20.75 2.629 19.871C1.75 18.993 1.75 17.578 1.75 14.75V6.75C1.75 3.922 1.75 2.507 2.629 1.629C3.507 0.75 4.922 0.75 7.75 0.75H13.75C16.578 0.75 17.993 0.75 18.871 1.629C19.75 2.507 19.75 3.922 19.75 6.75V10.75M6.75 0.75V4.75M6.75 20.75V8.75M0.75 10.75H2.75M0.75 14.75H2.75M0.75 6.75H2.75M10.25 5.25H15.25M10.25 8.75H15.25" stroke="#003A78" stroke-width="1.5" stroke-linecap="round"/>
</svg>
